<?xml version="1.0" standalone="no"?>
<!DOCTYPE svg PUBLIC "-//W3C//DTD SVG 20010904//EN"
 "http://www.w3.org/TR/2001/REC-SVG-20010904/DTD/svg10.dtd">
<svg version="1.0" xmlns="http://www.w3.org/2000/svg"
 width="640.000000pt" height="640.000000pt" viewBox="0 0 640.000000 640.000000"
 preserveAspectRatio="xMidYMid meet">
<metadata>
Created by potrace 1.14, written by Peter Selinger 2001-2017
</metadata>
<g transform="translate(0.000000,640.000000) scale(0.100000,-0.100000)"
fill="#000000" stroke="none">
<path d="M200 6383 c-46 -23 -162 -139 -183 -185 -16 -34 -17 -232 -17 -3002
l0 -2967 34 -52 c37 -58 90 -111 151 -151 l40 -26 2972 0 2973 0 50 31 c55 34
141 125 165 175 13 29 15 347 15 2998 l0 2966 -26 41 c-38 61 -99 124 -153
158 l-48 31 -2969 0 c-2763 0 -2971 -2 -3004 -17z"/>
</g>
</svg>
